<svg id="Layer_1" data-name="Layer 1" xmlns="http://www.w3.org/2000/svg" viewBox="0 0 183.53 183.53"><path d="M90.85,123.76V76.48Q77.67,86.62,73.09,86.62a5.21,5.21,0,0,1-3.87-1.75,5.59,5.59,0,0,1-1.69-4A4.55,4.55,0,0,1,69.19,77a37.63,37.63,0,0,1,5.87-3.22,43.71,43.71,0,0,0,10-6.23,43,43,0,0,0,6.68-7.33q2.91-4.05,3.79-5t3.33-.93a5.32,5.32,0,0,1,4.41,2.13A9.31,9.31,0,0,1,105,62.25v59.48q0,10.45-7.11,10.45a6.51,6.51,0,0,1-5.09-2.13Q90.85,127.92,90.85,123.76Z" transform="translate(-0.98 -1.45)"/><path d="M180,64.7a9.73,9.73,0,1,0-18.5,6A72.1,72.1,0,0,1,165,92.42a9.74,9.74,0,0,0,9.73,9.63h.11a9.74,9.74,0,0,0,9.63-9.84A91.47,91.47,0,0,0,180,64.7Z" transform="translate(-0.98 -1.45)"/><path d="M136.21,35.43a72.75,72.75,0,0,1,15.36,15.73,9.73,9.73,0,1,0,15.82-11.34,92.28,92.28,0,0,0-19.47-19.94,9.73,9.73,0,1,0-11.71,15.55Z" transform="translate(-0.98 -1.45)"/><path d="M96.87,165.4l-1.59.07h0c-.83,0-1.69,0-2.53,0a72.3,72.3,0,0,1,0-144.6c.84,0,1.69,0,2.53.05h0A71.84,71.84,0,0,1,116.86,25a9.73,9.73,0,1,0,6.5-18.35A91.82,91.82,0,0,0,96,1.5h0c-1.06,0-2.14-.05-3.2-.05a91.77,91.77,0,1,0,0,183.53c1.06,0,2.12,0,3.17-.06h0c.68,0,1.35,0,2-.09a9.73,9.73,0,0,0-1.09-19.43Z" transform="translate(-0.98 -1.45)"/><path d="M174.1,107.68a9.73,9.73,0,0,0-12.14,6.5A71.5,71.5,0,0,1,152.47,134a9.73,9.73,0,1,0,16.07,11,91.54,91.54,0,0,0,12.06-25.15A9.73,9.73,0,0,0,174.1,107.68Z" transform="translate(-0.98 -1.45)"/><path d="M137.46,150a71.86,71.86,0,0,1-19.11,10.82,9.73,9.73,0,1,0,6.89,18.21,91.49,91.49,0,0,0,24.27-13.74,9.73,9.73,0,0,0-12-15.29Z" transform="translate(-0.98 -1.45)"/></svg>