<?xml version="1.0" encoding="utf-8"?>
<!-- Generator: Adobe Illustrator 25.2.1, SVG Export Plug-In . SVG Version: 6.00 Build 0)  -->
<svg version="1.1" id="Layer_1" xmlns="http://www.w3.org/2000/svg" xmlns:xlink="http://www.w3.org/1999/xlink" x="0px" y="0px"
	 viewBox="0 0 182.8 40.2" style="enable-background:new 0 0 182.8 40.2;" xml:space="preserve">
<style type="text/css">
	.st0{fill:none;}
</style>
<path d="M179.5,16.7c-3,0.2-12.3,1-17.1,0.8c-3.8-0.1-7.2,0.2-7.3-2.3c-0.1-1.5,1.8-2.8,2.5-4c0.3-0.6,0.1-0.9-0.6-0.7
	c-1.9,0.8-3.3,1.4-3.7,1.6s-0.4,0-0.4-0.6c-0.1-3.1-4-4.4-8-4c-4.3,0.6-8.4,2-12.2,4.2c-0.6,0.3-0.5,0.1-0.8-0.3s-0.6-0.8-1-1.2
	c-0.6-0.4-0.9-0.5-1.9,0c-2,1-5.5,2.4-6.7,2.4c-0.4,0-0.4-0.1-0.4-0.9c0.1-0.7-0.4-1.4-1.2-1.4c-0.1,0-0.1,0-0.2,0
	c-0.6,0.1-1.3,0.3-1.8,0.7c-3.4,2-6.9,3.8-10.5,5.3c-0.5,0.2-0.3-0.1-0.1-0.4c1.9-2.7,2-6.4-3.2-5.8c-4.4,0.5-8.7,1.5-12.8,3.2
	c-0.7,0.2-0.8,0.2-1-0.2c-0.2-0.2-0.3-0.4-0.5-0.7c-0.2-0.3-0.9-0.3-1.4-0.1c-3,1.2-5.8,2.8-8.4,4.6c-1.5,1.1-2.2,0.4-2.3-0.2
	c-0.6-2.9-1.1-6-4.8-6.3c-1.4,4.2-5,7.1-9.4,7.6c-1.3,0.2-1.8-0.7-2.4-2.9c-1-3.6-1.9-3.6-2.6-3.7c-1.3,2-2.8,3.8-4.6,5.3
	c-0.2,0.2-0.5,0.1-0.6-0.2c-1.7-2.8-10.3-6.1-23.4-10.3c-1.6-0.5-2.2-1-1.8-1.6s2.2-0.4,2.9-0.4c4.7,0.5,9.4,1.4,13.9,2.8
	c1.1,0.3,3.1,1.1,4,1.3c1.2,0.2,1.1-0.4,0.7-0.9c-1.2-1.5-2.8-2.6-4.6-3.2C45,4,43.9,4,42.3,3.7c-2.5-0.5-11.5-2-15.5-2.2
	c-1.7-0.1-5.5-0.2-6.3,1.6c-0.6,1.3,0.2,2.2,3.2,3.4c5.1,2,8.4,3.2,12,5.1c3.5,1.7,3.5,3.6,1.8,4.2c-0.9,0.4-2.3,0.5-5.8,0.7
	c-9.5,0.2-18.4,0.4-29,0.3c-1,0-1,0.6-0.4,1.1c1,1,2.7,1.4,5.3,1.8c4,0.5,6,1.2,8.5,3.1c0.6,0.4,1.3,0.7,2,0.7c2.9,0.1,5,0.1,10,0.1
	c18,0.1,24.1-0.9,26.8-4.3c0.5-0.3,0.9-0.4,1.7-0.8c0.4-0.2,0.5,0,0.5,0.6c0.2,3.4,2.3,4.4,4.9,4.4c3.3-0.2,6.5-1,9.6-2.2
	c0.4-0.2,0.6-0.1,1,0.2c0.9,0.7,1.9,1.1,2.9,1.2c1.2,0.1,2.5-2,6.4-4.3c0.7-0.4,0.7-0.4,0.5,0.1c-0.7,1.9-1.1,4-1.1,6.1
	c0,3.4,1.1,9.3,5,13.5c0.5,0.5,1,0.5,0.9-0.2s0-5,0.1-6.1c0.1-0.4,0-0.9-0.1-1.3c-0.6-1.8-0.8-6.4,0.8-8.7c0.1-0.2,0.3-0.2,0.8-0.1
	c2.4,0.9,5.4,1.9,7.7,1.9c3,0,5.2-1.4,9.9-4.5c0.8-0.5,1.6-0.8,3.4-1.6c0.5-0.2,0.7-0.2,0.5,0.1c-0.9,1.7-1.2,3.6-1,5.5
	c0.1,0.6,0.7,1.1,1.1,0.8c1.9-1.2,3.9-2.2,6.1-3c0.5-0.2,0.5-0.8,0.7-1.1c0.8-3.4,4.3-5,8.4-4.4c0.6,0.1,0.9,0.1,0.2,0.5
	c-1.2,0.9-2,2.1-2.3,3.5c0,2,1.9,3.6,6.1,3.7c5.8,0.1,12.8-1.8,19.2-5.7c0.7-0.4,0.6-0.3,0.4,0.4s-0.5,2.3,1,3.2
	c2.2,1.4,7.5,2.1,14.6,2c1.2,0.2,2.4-0.2,3.3-1c3.1-2.3,4.1-2.6,7.5-3.1c1.8-0.2,3.9-0.5,4.8-1.4C181.5,16.6,180.7,16.6,179.5,16.7z
	 M101.5,17.3c-1.5,1.3-3.4,2-5.4,2c-1.8-0.1-3.5-0.3-5.2-0.7c-0.4-0.1-0.2-0.4,0.2-0.7c2.3-1.7,8.2-3.1,10.6-3.1
	c0.8,0,1.3,0.2,1.2,0.7C102.8,16,102.2,16.8,101.5,17.3L101.5,17.3z M147.8,14.1c-0.1,0.2-0.1,0.3-0.5,0.5c-3.5,1.7-12,3.8-14,3.6
	c-0.5-0.1-0.8-0.2-0.8-0.3c0.3-2,7.1-5.5,10.8-6.5C147.7,10.1,148.4,12.7,147.8,14.1z"/>
<rect x="-5.1" y="-3.9" class="st0" width="193" height="48"/>
</svg>
